<mxfile host="65bd71144e">
    <diagram id="x2E7sRlOBZZ1Zg9V9XRG" name="Page-1">
        <mxGraphModel dx="1260" dy="719" grid="1" gridSize="10" guides="1" tooltips="1" connect="1" arrows="1" fold="1" page="1" pageScale="1" pageWidth="1169" pageHeight="1654" math="0" shadow="0">
            <root>
                <mxCell id="0"/>
                <mxCell id="1" parent="0"/>
                <mxCell id="6" value="Game" style="swimlane;fontStyle=1;align=center;verticalAlign=top;childLayout=stackLayout;horizontal=1;startSize=26;horizontalStack=0;resizeParent=1;resizeParentMax=0;resizeLast=0;collapsible=1;marginBottom=0;fillColor=#FEFFB9;fillStyle=solid;labelBorderColor=none;fontColor=#000000;" vertex="1" parent="1">
                    <mxGeometry x="470" y="390" width="160" height="234" as="geometry"/>
                </mxCell>
                <mxCell id="12" value="- dealert: Participant" style="text;strokeColor=none;fillColor=#FEFFB9;align=left;verticalAlign=top;spacingLeft=4;spacingRight=4;overflow=hidden;rotatable=0;points=[[0,0.5],[1,0.5]];portConstraint=eastwest;fillStyle=solid;labelBorderColor=none;fontColor=#000000;" vertex="1" parent="6">
                    <mxGeometry y="26" width="160" height="26" as="geometry"/>
                </mxCell>
                <mxCell id="7" value="- player: Player" style="text;strokeColor=none;fillColor=#FEFFB9;align=left;verticalAlign=top;spacingLeft=4;spacingRight=4;overflow=hidden;rotatable=0;points=[[0,0.5],[1,0.5]];portConstraint=eastwest;fillStyle=solid;labelBorderColor=none;fontColor=#000000;" vertex="1" parent="6">
                    <mxGeometry y="52" width="160" height="26" as="geometry"/>
                </mxCell>
                <mxCell id="11" value="- deck: Deck" style="text;strokeColor=none;fillColor=#FEFFB9;align=left;verticalAlign=top;spacingLeft=4;spacingRight=4;overflow=hidden;rotatable=0;points=[[0,0.5],[1,0.5]];portConstraint=eastwest;fillStyle=solid;labelBorderColor=none;fontColor=#000000;" vertex="1" parent="6">
                    <mxGeometry y="78" width="160" height="26" as="geometry"/>
                </mxCell>
                <mxCell id="9" value="+ Game(Player)" style="text;strokeColor=none;fillColor=#FEFFB9;align=left;verticalAlign=top;spacingLeft=4;spacingRight=4;overflow=hidden;rotatable=0;points=[[0,0.5],[1,0.5]];portConstraint=eastwest;fillStyle=solid;labelBorderColor=none;fontColor=#000000;" vertex="1" parent="6">
                    <mxGeometry y="104" width="160" height="26" as="geometry"/>
                </mxCell>
                <mxCell id="13" value="- playerDrawCard(): void" style="text;strokeColor=none;fillColor=#FEFFB9;align=left;verticalAlign=top;spacingLeft=4;spacingRight=4;overflow=hidden;rotatable=0;points=[[0,0.5],[1,0.5]];portConstraint=eastwest;fillStyle=solid;fontColor=#000000;" vertex="1" parent="6">
                    <mxGeometry y="130" width="160" height="26" as="geometry"/>
                </mxCell>
                <mxCell id="14" value="- playerDrawCard(): void" style="text;strokeColor=none;fillColor=#FEFFB9;align=left;verticalAlign=top;spacingLeft=4;spacingRight=4;overflow=hidden;rotatable=0;points=[[0,0.5],[1,0.5]];portConstraint=eastwest;fillStyle=solid;labelBorderColor=none;fontColor=#000000;" vertex="1" parent="6">
                    <mxGeometry y="156" width="160" height="26" as="geometry"/>
                </mxCell>
                <mxCell id="15" value="- dealerDrawCard(): void" style="text;strokeColor=none;fillColor=#FEFFB9;align=left;verticalAlign=top;spacingLeft=4;spacingRight=4;overflow=hidden;rotatable=0;points=[[0,0.5],[1,0.5]];portConstraint=eastwest;fillStyle=solid;labelBorderColor=none;fontColor=#000000;" vertex="1" parent="6">
                    <mxGeometry y="182" width="160" height="26" as="geometry"/>
                </mxCell>
                <mxCell id="16" value="- dealerGtCard(): void" style="text;strokeColor=none;fillColor=#FEFFB9;align=left;verticalAlign=top;spacingLeft=4;spacingRight=4;overflow=hidden;rotatable=0;points=[[0,0.5],[1,0.5]];portConstraint=eastwest;fillStyle=solid;labelBorderColor=none;fontColor=#000000;" vertex="1" parent="6">
                    <mxGeometry y="208" width="160" height="26" as="geometry"/>
                </mxCell>
                <mxCell id="17" value="Card" style="swimlane;fontStyle=1;align=center;verticalAlign=top;childLayout=stackLayout;horizontal=1;startSize=26;horizontalStack=0;resizeParent=1;resizeParentMax=0;resizeLast=0;collapsible=1;marginBottom=0;fillColor=#FEFFB9;fontColor=#000000;" vertex="1" parent="1">
                    <mxGeometry x="400" y="40" width="200" height="260" as="geometry"/>
                </mxCell>
                <mxCell id="22" value="- symbolType: char&#10;" style="text;strokeColor=none;fillColor=#FEFFB9;align=left;verticalAlign=top;spacingLeft=4;spacingRight=4;overflow=hidden;rotatable=0;points=[[0,0.5],[1,0.5]];portConstraint=eastwest;fillStyle=solid;labelBorderColor=none;fontColor=#000000;" vertex="1" parent="17">
                    <mxGeometry y="26" width="200" height="26" as="geometry"/>
                </mxCell>
                <mxCell id="21" value="- cardGraphic: CardGraphic&#10;" style="text;strokeColor=none;fillColor=#FEFFB9;align=left;verticalAlign=top;spacingLeft=4;spacingRight=4;overflow=hidden;rotatable=0;points=[[0,0.5],[1,0.5]];portConstraint=eastwest;fillStyle=solid;labelBorderColor=none;fontColor=#000000;" vertex="1" parent="17">
                    <mxGeometry y="52" width="200" height="26" as="geometry"/>
                </mxCell>
                <mxCell id="23" value="- name: String&#10;" style="text;strokeColor=none;fillColor=#FEFFB9;align=left;verticalAlign=top;spacingLeft=4;spacingRight=4;overflow=hidden;rotatable=0;points=[[0,0.5],[1,0.5]];portConstraint=eastwest;fillStyle=solid;labelBorderColor=none;fontColor=#000000;" vertex="1" parent="17">
                    <mxGeometry y="78" width="200" height="26" as="geometry"/>
                </mxCell>
                <mxCell id="20" value="+ Card(int, char, String)" style="text;strokeColor=none;fillColor=#FEFFB9;align=left;verticalAlign=top;spacingLeft=4;spacingRight=4;overflow=hidden;rotatable=0;points=[[0,0.5],[1,0.5]];portConstraint=eastwest;fillStyle=solid;labelBorderColor=none;fontColor=#000000;" vertex="1" parent="17">
                    <mxGeometry y="104" width="200" height="26" as="geometry"/>
                </mxCell>
                <mxCell id="24" value="+ getValue(): int" style="text;strokeColor=none;fillColor=#FEFFB9;align=left;verticalAlign=top;spacingLeft=4;spacingRight=4;overflow=hidden;rotatable=0;points=[[0,0.5],[1,0.5]];portConstraint=eastwest;fillStyle=solid;labelBorderColor=none;fontColor=#000000;" vertex="1" parent="17">
                    <mxGeometry y="130" width="200" height="26" as="geometry"/>
                </mxCell>
                <mxCell id="26" value="+ getSymbolType(): char" style="text;strokeColor=none;fillColor=#FEFFB9;align=left;verticalAlign=top;spacingLeft=4;spacingRight=4;overflow=hidden;rotatable=0;points=[[0,0.5],[1,0.5]];portConstraint=eastwest;fillStyle=solid;labelBorderColor=none;fontColor=#000000;" vertex="1" parent="17">
                    <mxGeometry y="156" width="200" height="26" as="geometry"/>
                </mxCell>
                <mxCell id="25" value="+ getCardGroahic(): CardGraphic" style="text;strokeColor=none;fillColor=#FEFFB9;align=left;verticalAlign=top;spacingLeft=4;spacingRight=4;overflow=hidden;rotatable=0;points=[[0,0.5],[1,0.5]];portConstraint=eastwest;fillStyle=solid;labelBorderColor=none;fontColor=#000000;" vertex="1" parent="17">
                    <mxGeometry y="182" width="200" height="26" as="geometry"/>
                </mxCell>
                <mxCell id="27" value="+ getName(): String" style="text;strokeColor=none;fillColor=#FEFFB9;align=left;verticalAlign=top;spacingLeft=4;spacingRight=4;overflow=hidden;rotatable=0;points=[[0,0.5],[1,0.5]];portConstraint=eastwest;fillStyle=solid;labelBorderColor=none;fontColor=#000000;" vertex="1" parent="17">
                    <mxGeometry y="208" width="200" height="26" as="geometry"/>
                </mxCell>
                <mxCell id="28" value="+ setValue(int): void" style="text;strokeColor=none;fillColor=#FEFFB9;align=left;verticalAlign=top;spacingLeft=4;spacingRight=4;overflow=hidden;rotatable=0;points=[[0,0.5],[1,0.5]];portConstraint=eastwest;fillStyle=solid;labelBorderColor=none;fontColor=#000000;" vertex="1" parent="17">
                    <mxGeometry y="234" width="200" height="26" as="geometry"/>
                </mxCell>
                <mxCell id="29" value="Deck" style="swimlane;fontStyle=1;align=center;verticalAlign=top;childLayout=stackLayout;horizontal=1;startSize=26;horizontalStack=0;resizeParent=1;resizeParentMax=0;resizeLast=0;collapsible=1;marginBottom=0;labelBackgroundColor=none;fillStyle=solid;fillColor=#FEFFB9;fontColor=#000000;strokeColor=none;" vertex="1" parent="1">
                    <mxGeometry x="100" y="260" width="180" height="142" as="geometry"/>
                </mxCell>
                <mxCell id="30" value="- cards: ArrayList&lt;Card&gt;" style="text;strokeColor=none;fillColor=#FEFFB9;align=left;verticalAlign=top;spacingLeft=4;spacingRight=4;overflow=hidden;rotatable=0;points=[[0,0.5],[1,0.5]];portConstraint=eastwest;labelBackgroundColor=none;labelBorderColor=none;fontColor=#000000;" vertex="1" parent="29">
                    <mxGeometry y="26" width="180" height="26" as="geometry"/>
                </mxCell>
                <mxCell id="32" value="+ Deck()" style="text;strokeColor=default;fillColor=#FEFFB9;align=left;verticalAlign=top;spacingLeft=4;spacingRight=4;overflow=hidden;rotatable=0;points=[[0,0.5],[1,0.5]];portConstraint=eastwest;fontColor=#000000;strokeWidth=1;perimeterSpacing=0;dashed=1;dashPattern=1 4;" vertex="1" parent="29">
                    <mxGeometry y="52" width="180" height="28" as="geometry"/>
                </mxCell>
                <mxCell id="33" value="+ getCards(): ArrayList&lt;Card&gt;" style="text;strokeColor=none;fillColor=#FEFFB9;align=left;verticalAlign=top;spacingLeft=4;spacingRight=4;overflow=hidden;rotatable=0;points=[[0,0.5],[1,0.5]];portConstraint=eastwest;fontColor=#000000;" vertex="1" parent="29">
                    <mxGeometry y="80" width="180" height="36" as="geometry"/>
                </mxCell>
                <mxCell id="34" value="+ draw(): Card" style="text;strokeColor=none;fillColor=#FEFFB9;align=left;verticalAlign=top;spacingLeft=4;spacingRight=4;overflow=hidden;rotatable=0;points=[[0,0.5],[1,0.5]];portConstraint=eastwest;fontColor=#000000;" vertex="1" parent="29">
                    <mxGeometry y="116" width="180" height="26" as="geometry"/>
                </mxCell>
                <mxCell id="35" value="Participant" style="swimlane;fontStyle=1;align=center;verticalAlign=top;childLayout=stackLayout;horizontal=1;startSize=26;horizontalStack=0;resizeParent=1;resizeParentMax=0;resizeLast=0;collapsible=1;marginBottom=0;fillColor=#FEFFB9;fillStyle=solid;labelBorderColor=none;fontColor=#000000;" vertex="1" parent="1">
                    <mxGeometry x="780" y="92" width="180" height="208" as="geometry"/>
                </mxCell>
                <mxCell id="39" value="- cards: ArrayList&lt;Card&gt;" style="text;strokeColor=none;fillColor=#FEFFB9;align=left;verticalAlign=top;spacingLeft=4;spacingRight=4;overflow=hidden;rotatable=0;points=[[0,0.5],[1,0.5]];portConstraint=eastwest;fillStyle=solid;labelBorderColor=none;fontColor=#000000;" vertex="1" parent="35">
                    <mxGeometry y="26" width="180" height="26" as="geometry"/>
                </mxCell>
                <mxCell id="18" value="- score: int&#10;" style="text;strokeColor=none;fillColor=#FEFFB9;align=left;verticalAlign=top;spacingLeft=4;spacingRight=4;overflow=hidden;rotatable=0;points=[[0,0.5],[1,0.5]];portConstraint=eastwest;fillStyle=solid;labelBorderColor=none;fontColor=#000000;" vertex="1" parent="35">
                    <mxGeometry y="52" width="180" height="26" as="geometry"/>
                </mxCell>
                <mxCell id="38" value="+ Participant()" style="text;strokeColor=none;fillColor=#FEFFB9;align=left;verticalAlign=top;spacingLeft=4;spacingRight=4;overflow=hidden;rotatable=0;points=[[0,0.5],[1,0.5]];portConstraint=eastwest;fillStyle=solid;labelBorderColor=none;fontColor=#000000;" vertex="1" parent="35">
                    <mxGeometry y="78" width="180" height="26" as="geometry"/>
                </mxCell>
                <mxCell id="40" value="+ addCard(Card): void" style="text;strokeColor=none;fillColor=#FEFFB9;align=left;verticalAlign=top;spacingLeft=4;spacingRight=4;overflow=hidden;rotatable=0;points=[[0,0.5],[1,0.5]];portConstraint=eastwest;fillStyle=solid;labelBorderColor=none;fontColor=#000000;" vertex="1" parent="35">
                    <mxGeometry y="104" width="180" height="26" as="geometry"/>
                </mxCell>
                <mxCell id="42" value="+ getScore: int" style="text;strokeColor=none;fillColor=#FEFFB9;align=left;verticalAlign=top;spacingLeft=4;spacingRight=4;overflow=hidden;rotatable=0;points=[[0,0.5],[1,0.5]];portConstraint=eastwest;fillStyle=solid;labelBorderColor=none;fontColor=#000000;" vertex="1" parent="35">
                    <mxGeometry y="130" width="180" height="26" as="geometry"/>
                </mxCell>
                <mxCell id="44" value="+ getCards(): ArrayList&lt;Card&gt;" style="text;strokeColor=none;fillColor=#FEFFB9;align=left;verticalAlign=top;spacingLeft=4;spacingRight=4;overflow=hidden;rotatable=0;points=[[0,0.5],[1,0.5]];portConstraint=eastwest;fillStyle=solid;labelBorderColor=none;fontColor=#000000;" vertex="1" parent="35">
                    <mxGeometry y="156" width="180" height="26" as="geometry"/>
                </mxCell>
                <mxCell id="45" value="+ isSoft(): bool&#10;" style="text;strokeColor=none;fillColor=#FEFFB9;align=left;verticalAlign=top;spacingLeft=4;spacingRight=4;overflow=hidden;rotatable=0;points=[[0,0.5],[1,0.5]];portConstraint=eastwest;fillStyle=solid;labelBorderColor=none;fontColor=#000000;" vertex="1" parent="35">
                    <mxGeometry y="182" width="180" height="26" as="geometry"/>
                </mxCell>
                <mxCell id="50" value="Player" style="swimlane;fontStyle=1;align=center;verticalAlign=top;childLayout=stackLayout;horizontal=1;startSize=26;horizontalStack=0;resizeParent=1;resizeParentMax=0;resizeLast=0;collapsible=1;marginBottom=0;fillColor=#FEFFB9;fillStyle=solid;labelBorderColor=none;fontColor=#000000;" vertex="1" parent="1">
                    <mxGeometry x="790" y="429" width="160" height="156" as="geometry"/>
                </mxCell>
                <mxCell id="51" value="- coin: int" style="text;strokeColor=none;fillColor=#FEFFB9;align=left;verticalAlign=top;spacingLeft=4;spacingRight=4;overflow=hidden;rotatable=0;points=[[0,0.5],[1,0.5]];portConstraint=eastwest;fillStyle=solid;labelBorderColor=none;fontColor=#000000;" vertex="1" parent="50">
                    <mxGeometry y="26" width="160" height="26" as="geometry"/>
                </mxCell>
                <mxCell id="53" value="+ Player()" style="text;strokeColor=none;fillColor=#FEFFB9;align=left;verticalAlign=top;spacingLeft=4;spacingRight=4;overflow=hidden;rotatable=0;points=[[0,0.5],[1,0.5]];portConstraint=eastwest;fillStyle=solid;labelBorderColor=none;fontColor=#000000;" vertex="1" parent="50">
                    <mxGeometry y="52" width="160" height="26" as="geometry"/>
                </mxCell>
                <mxCell id="54" value="+ addCoin(int): void" style="text;strokeColor=none;fillColor=#FEFFB9;align=left;verticalAlign=top;spacingLeft=4;spacingRight=4;overflow=hidden;rotatable=0;points=[[0,0.5],[1,0.5]];portConstraint=eastwest;labelBackgroundColor=none;fontColor=#000000;" vertex="1" parent="50">
                    <mxGeometry y="78" width="160" height="26" as="geometry"/>
                </mxCell>
                <mxCell id="55" value="+ removeCoin(int): void" style="text;strokeColor=none;fillColor=#FEFFB9;align=left;verticalAlign=top;spacingLeft=4;spacingRight=4;overflow=hidden;rotatable=0;points=[[0,0.5],[1,0.5]];portConstraint=eastwest;fillStyle=solid;labelBorderColor=none;fontColor=#000000;" vertex="1" parent="50">
                    <mxGeometry y="104" width="160" height="26" as="geometry"/>
                </mxCell>
                <mxCell id="56" value="+ getCoins: int" style="text;strokeColor=none;fillColor=#FEFFB9;align=left;verticalAlign=top;spacingLeft=4;spacingRight=4;overflow=hidden;rotatable=0;points=[[0,0.5],[1,0.5]];portConstraint=eastwest;fillStyle=solid;labelBorderColor=none;fontColor=#000000;" vertex="1" parent="50">
                    <mxGeometry y="130" width="160" height="26" as="geometry"/>
                </mxCell>
                <mxCell id="60" value="" style="endArrow=block;endSize=16;endFill=0;html=1;exitX=0.5;exitY=0;exitDx=0;exitDy=0;entryX=0.5;entryY=1.264;entryDx=0;entryDy=0;entryPerimeter=0;strokeColor=#CC0000;" edge="1" parent="1" source="50" target="45">
                    <mxGeometry width="160" relative="1" as="geometry">
                        <mxPoint x="430" y="280" as="sourcePoint"/>
                        <mxPoint x="910" y="280" as="targetPoint"/>
                    </mxGeometry>
                </mxCell>
                <mxCell id="61" value="" style="endArrow=diamondThin;endFill=1;endSize=24;html=1;exitX=0;exitY=0.5;exitDx=0;exitDy=0;entryX=1;entryY=0.5;entryDx=0;entryDy=0;strokeColor=#CC0000;" edge="1" parent="1" source="38" target="12">
                    <mxGeometry width="160" relative="1" as="geometry">
                        <mxPoint x="480" y="320" as="sourcePoint"/>
                        <mxPoint x="640" y="320" as="targetPoint"/>
                    </mxGeometry>
                </mxCell>
                <mxCell id="62" value="" style="endArrow=diamondThin;endFill=0;endSize=24;html=1;exitX=0;exitY=0.5;exitDx=0;exitDy=0;entryX=1;entryY=0.5;entryDx=0;entryDy=0;strokeColor=#CC0000;" edge="1" parent="1" source="53" target="7">
                    <mxGeometry width="160" relative="1" as="geometry">
                        <mxPoint x="690" y="310" as="sourcePoint"/>
                        <mxPoint x="850" y="310" as="targetPoint"/>
                    </mxGeometry>
                </mxCell>
                <mxCell id="63" value="" style="endArrow=diamondThin;endFill=1;endSize=24;html=1;exitX=1;exitY=0.5;exitDx=0;exitDy=0;entryX=0;entryY=0.5;entryDx=0;entryDy=0;strokeColor=#CC0000;" edge="1" parent="1" source="33" target="11">
                    <mxGeometry width="160" relative="1" as="geometry">
                        <mxPoint x="480" y="320" as="sourcePoint"/>
                        <mxPoint x="640" y="320" as="targetPoint"/>
                    </mxGeometry>
                </mxCell>
                <mxCell id="64" value="" style="endArrow=diamondThin;endFill=1;endSize=24;html=1;entryX=1;entryY=0.5;entryDx=0;entryDy=0;exitX=0;exitY=0.5;exitDx=0;exitDy=0;strokeColor=#CC0000;" edge="1" parent="1" source="21" target="30">
                    <mxGeometry width="160" relative="1" as="geometry">
                        <mxPoint x="480" y="320" as="sourcePoint"/>
                        <mxPoint x="640" y="320" as="targetPoint"/>
                    </mxGeometry>
                </mxCell>
                <mxCell id="65" value="" style="endArrow=diamondThin;endFill=1;endSize=24;html=1;exitX=1;exitY=0.5;exitDx=0;exitDy=0;entryX=0;entryY=0.5;entryDx=0;entryDy=0;strokeColor=#CC0000;" edge="1" parent="1" source="21" target="39">
                    <mxGeometry width="160" relative="1" as="geometry">
                        <mxPoint x="480" y="320" as="sourcePoint"/>
                        <mxPoint x="640" y="320" as="targetPoint"/>
                    </mxGeometry>
                </mxCell>
            </root>
        </mxGraphModel>
    </diagram>
</mxfile>